<svg xmlns="http://www.w3.org/2000/svg" xmlns:xlink="http://www.w3.org/1999/xlink" viewBox="101.5 2900 172 37">
  <defs>
    <style>
      .cls-1, .cls-3 {
        fill: #fff;
      }

      .cls-1 {
        stroke: #707070;
      }

      .cls-2 {
        clip-path: url(#clip-path);
      }
    </style>
    <clipPath id="clip-path">
      <rect id="Rectangle_6" data-name="Rectangle 6" class="cls-1" width="172" height="37" transform="translate(188 14)"/>
    </clipPath>
  </defs>
  <g id="Mask_Group_1" data-name="Mask Group 1" class="cls-2" transform="translate(-86.5 2886)">
    <g id="united-airlines-logo_white" transform="translate(188 17.689)">
      <path id="Path_1" data-name="Path 1" class="cls-3" d="M138.9,0h29.581q0,13.249,0,26.5c-.011,1.042.02,2.084-.016,3.124h-6.224a21.874,21.874,0,0,0,.842-2.984,19.989,19.989,0,0,0,.229-6.251,19.443,19.443,0,0,0-10.6-14.863A19.525,19.525,0,0,0,138.9,4.256C138.9,2.837,138.9,1.419,138.9,0Z"/>
      <path id="Path_2" data-name="Path 2" class="cls-3" d="M141.237,4.031a9.933,9.933,0,0,1,4.081-.044,6.191,6.191,0,0,1,4.355,3.3,6.654,6.654,0,0,1,.613,2.783,12.473,12.473,0,0,1-1.941,6.3,20.437,20.437,0,0,1-4.025,4.744,21.531,21.531,0,0,1-4.8,3.221,3.67,3.67,0,0,1-.616.264q0-.8,0-1.6c.172.282.288.594.461.877a7.35,7.35,0,0,0,.729-.373c-.367-.789-.773-1.559-1.154-2.341a.644.644,0,0,1-.038-.326c.006-.3-.008-.6.008-.906a10.619,10.619,0,0,0,1.975-1.291c.062-.076.128.036.164.08.651.894,1.338,1.761,2.026,2.628a.653.653,0,0,0,.1.1,4.491,4.491,0,0,0,.908-.8c-.73-.877-1.485-1.733-2.281-2.55-.034-.048-.129-.093-.1-.16a9.03,9.03,0,0,0,1.421-1.33,2.879,2.879,0,0,1,.373-.4c.931.737,1.862,1.477,2.772,2.242q.447-.552.871-1.123c-.949-.7-1.914-1.386-2.928-1.991a17.826,17.826,0,0,0,1.143-1.8,29.3,29.3,0,0,1,2.8,1.4,1.572,1.572,0,0,0,.319.159,7.978,7.978,0,0,0,.591-1.285,24.16,24.16,0,0,0-3.174-1.338,6.851,6.851,0,0,0,.477-1.421,21.95,21.95,0,0,1,3.236.875,7.743,7.743,0,0,0,.212-1.545,23.873,23.873,0,0,0-3.2-.575,9.161,9.161,0,0,0,.055-.98,26.568,26.568,0,0,1,3.074.4,4.694,4.694,0,0,0-.323-1.361,20.274,20.274,0,0,0-2.91-.145,6.733,6.733,0,0,0-.253-.742,18.925,18.925,0,0,1,2.681-.052,3.274,3.274,0,0,0-.839-1.04,15.373,15.373,0,0,0-2.342.232,5.083,5.083,0,0,0-.47-.567,15.726,15.726,0,0,1,1.917-.312c-.045-.1-.157-.144-.246-.2a8.455,8.455,0,0,0-1.018-.492c-.168-.078-.341.024-.508.05-.343.072-.673.207-1.014.279a7.434,7.434,0,0,0-.713-.328,7.2,7.2,0,0,1,.9-.335,8.24,8.24,0,0,0-2.1-.108A4.03,4.03,0,0,1,141.237,4.031Z"/>
      <path id="Path_3" data-name="Path 3" class="cls-3" d="M145.873,3.849a13.658,13.658,0,0,1,3.381.69,7,7,0,0,1,2.359,1.439,7.544,7.544,0,0,1,2.531,4.594,10.992,10.992,0,0,1-.914,5.707,20.29,20.29,0,0,1-3.243,5.159,23.952,23.952,0,0,1-8.48,6.626,23.081,23.081,0,0,1-2.6,1.015c-.013-1.384,0-2.769-.007-4.154.272-.1.531-.238.8-.347.484,1.036,1,2.058,1.581,3.045a5.522,5.522,0,0,0,.834-.42q-.761-1.43-1.559-2.84c-.039-.072-.148-.208-.02-.249a17.813,17.813,0,0,0,3.07-2.052q1.093,1.386,2.177,2.779a9.673,9.673,0,0,0,1.111-.9c-.627-.806-1.307-1.571-1.97-2.347-.089-.122-.245-.211-.294-.352.324-.314.678-.6.984-.933.406-.455.835-.892,1.2-1.384a29.81,29.81,0,0,1,2.645,2.4,8.139,8.139,0,0,0,1.029-1.324q-1.06-.93-2.164-1.807a4.115,4.115,0,0,1-.571-.478,10.923,10.923,0,0,0,1.372-2.223c.752.389,1.458.863,2.171,1.319.292.183.559.405.864.568a9.784,9.784,0,0,0,.717-1.536q-1.448-.9-2.976-1.664c-.06-.03-.171-.076-.117-.162a14.678,14.678,0,0,0,.54-1.833,20.242,20.242,0,0,1,2.6,1.087,4.841,4.841,0,0,0,.629.289,9.3,9.3,0,0,0,.2-1.859,22.684,22.684,0,0,0-3.2-1.151c.008-.391-.032-.78-.042-1.17a20.959,20.959,0,0,1,2.879.822c.063,0,.185.094.219.008a8.036,8.036,0,0,0-.586-1.761,24.808,24.808,0,0,0-2.819-.543c-.095-.319-.278-.609-.347-.932.652.089,1.312.138,1.96.266a3.546,3.546,0,0,0,.494.072,6.054,6.054,0,0,0-1.268-1.33.486.486,0,0,0-.313-.143c-.564-.017-1.128-.036-1.691-.023-.18-.157-.329-.345-.512-.5-.052-.06-.151-.1-.145-.189.4-.025.8-.019,1.2-.027A1.843,1.843,0,0,0,149,4.8a8.058,8.058,0,0,0-2.129-.568C146.545,4.078,146.194,4,145.873,3.849Z"/>
      <path id="Path_4" data-name="Path 4" class="cls-3" d="M139.575,4.461a7.463,7.463,0,0,1,3.959.292,4.4,4.4,0,0,1,2.29,1.939,5.7,5.7,0,0,1,.4,3.893,12.371,12.371,0,0,1-2.522,4.954,18.155,18.155,0,0,1-4.514,3.946,1.406,1.406,0,0,1-.289.141c.005-1.216,0-2.432,0-3.648.55.634,1.035,1.324,1.568,1.974a2.811,2.811,0,0,0,.7-.538c-.738-.777-1.468-1.561-2.2-2.344a.189.189,0,0,1,.009-.313,9.925,9.925,0,0,0,1.068-1.06c.982.627,1.922,1.316,2.844,2.029.182-.215.368-.427.542-.649.028-.052.138-.138.055-.189a32.975,32.975,0,0,0-3.007-1.707,7.4,7.4,0,0,0,.794-1.236,29.431,29.431,0,0,1,2.909,1.04,2.606,2.606,0,0,0,.517.2c.161-.316.324-.631.473-.952a21.926,21.926,0,0,0-3.553-.961,4.665,4.665,0,0,0,.3-.917,22.141,22.141,0,0,1,3.722.5,6.234,6.234,0,0,0,.215-1.143,31.6,31.6,0,0,0-3.765-.12c.033-.248.045-.5.068-.748a31.131,31.131,0,0,1,3.761-.084,3.869,3.869,0,0,0-.164-.978,22.846,22.846,0,0,0-3.66.419,5.687,5.687,0,0,0-.147-.573,23.527,23.527,0,0,1,3.528-.606,3.951,3.951,0,0,0-.492-.754,25.847,25.847,0,0,0-3.242.867,2.435,2.435,0,0,0-.312-.472A16.828,16.828,0,0,1,144.4,5.74a3.092,3.092,0,0,0-.873-.543,13.937,13.937,0,0,0-2.486,1.031,2.931,2.931,0,0,0-.371-.275c0-.079.088-.1.142-.136a11.76,11.76,0,0,1,1.879-.908,5.387,5.387,0,0,0-1.342-.215,8.834,8.834,0,0,0-1.394.875,4.056,4.056,0,0,0-.525-.155,5.278,5.278,0,0,1,.853-.675,8.958,8.958,0,0,0-1.384.167c0-.05,0-.15,0-.2-.1,0-.2-.008-.3-.015A5.525,5.525,0,0,1,139.575,4.461Z"/>
      <path id="Path_5" data-name="Path 5" class="cls-3" d="M150.9,5.1a4.731,4.731,0,0,1,.813.226,7.128,7.128,0,0,1,2.7,1.553,9.166,9.166,0,0,1,1.743,2.333,9.927,9.927,0,0,1,.933,6.382,17.829,17.829,0,0,1-2.883,6.628,28.734,28.734,0,0,1-7.577,7.4h-3.072c-.349-.589-.706-1.173-1.055-1.762a28.486,28.486,0,0,0,3.747-2.4c.634.811,1.245,1.64,1.9,2.435.4-.331.812-.65,1.2-1a27.6,27.6,0,0,0-1.957-2.4,22.927,22.927,0,0,0,2.591-2.627c.746.705,1.437,1.468,2.146,2.209a8.317,8.317,0,0,0,1.162-1.4c-.7-.759-1.484-1.445-2.228-2.163.137-.21.309-.4.453-.6a17.513,17.513,0,0,0,1.242-2.017,2.8,2.8,0,0,1,.529.372c.62.464,1.208.971,1.809,1.46a11.163,11.163,0,0,0,.764-1.732,21.2,21.2,0,0,0-2.33-1.719,11,11,0,0,0,.7-2.27,17.754,17.754,0,0,1,2.374,1.452,10.469,10.469,0,0,0,.192-2.2,20.715,20.715,0,0,0-2.293-1.217,13.541,13.541,0,0,0-.073-1.437c.732.3,1.449.627,2.152.987a6.836,6.836,0,0,0-.626-1.986c-.071-.126-.116-.3-.273-.343-.593-.206-1.187-.407-1.788-.587a8.1,8.1,0,0,0-.557-1.094,9.162,9.162,0,0,1,1.673.492,7.32,7.32,0,0,0-2.189-1.942c-.27-.164-.62-.053-.887-.21A4.912,4.912,0,0,0,150.9,5.1Z"/>
      <path id="Path_6" data-name="Path 6" class="cls-3" d="M138.9,5.568a3.413,3.413,0,0,1,2.63,1.727,4.535,4.535,0,0,1,.021,3.406,8.823,8.823,0,0,1-1.983,3.118,6.454,6.454,0,0,1-.672.649c.009-.507-.015-1.015.013-1.523a3.441,3.441,0,0,0,.529.31,2.835,2.835,0,0,0,.369-.406,7.332,7.332,0,0,0-.91-.46c0-.37,0-.74,0-1.111a8.336,8.336,0,0,1,1.655.431,4.033,4.033,0,0,0,.282-.578,13.258,13.258,0,0,0-1.927-.282c-.01-.211-.009-.422,0-.633a19.638,19.638,0,0,1,2.274.07,4.265,4.265,0,0,0,.165-.647A24.062,24.062,0,0,0,138.9,9.8c0-.162,0-.324,0-.486a20,20,0,0,1,2.49-.383c0-.184-.012-.368-.021-.551a13.159,13.159,0,0,0-2.463.641c0-.154-.005-.308-.006-.462a14.694,14.694,0,0,1,2.325-.75,2.628,2.628,0,0,0-.15-.419,13.575,13.575,0,0,0-2.181.891c0-.172,0-.345.008-.517.6-.292,1.194-.583,1.8-.845a2.424,2.424,0,0,0-.355-.331c-.487.278-.973.557-1.447.855q0-.254,0-.508c.263-.165.522-.338.8-.487.057-.048.161-.064.182-.146a1.812,1.812,0,0,0-.573-.234c-.152.058-.264.185-.415.245C138.9,6.063,138.9,5.816,138.9,5.568Z"/>
      <path id="Path_7" data-name="Path 7" class="cls-3" d="M0,7.946c1.5,0,3.006,0,4.508,0q0,4.405,0,8.81a3.342,3.342,0,0,0,.956,2.5,4.44,4.44,0,0,0,2.88.9,5.92,5.92,0,0,0,2.479-.412,2.608,2.608,0,0,0,1.336-1.284,4.436,4.436,0,0,0,.347-1.954c0-2.851,0-5.7,0-8.552,1.5-.011,3,0,4.495-.005q0,4.148,0,8.3a10.219,10.219,0,0,1-.214,2.476,5.893,5.893,0,0,1-2.2,3.5,9.191,9.191,0,0,1-4.831,1.558,15.769,15.769,0,0,1-4.6-.331,6.845,6.845,0,0,1-3.731-2.193A6.929,6.929,0,0,1,0,16.982Z"/>
      <path id="Path_8" data-name="Path 8" class="cls-3" d="M25.305,11.975c.01-1.347-.02-2.694.015-4.04,1.265.025,2.53,0,3.8.011.092-.016.147.076.21.125.91.959,1.847,1.892,2.756,2.852,1.012,1.026,2,2.075,3.014,3.1.983,1.047,2.01,2.051,2.986,3.1.032-1.185,0-2.371.011-3.557,0-1.875.008-3.75-.005-5.626q2.114,0,4.229,0,.01,7.794,0,15.588c-1.13,0-2.26.006-3.39-.005q-4.7-4.79-9.4-9.577c-.01,3.194,0,6.389,0,9.583-1.4,0-2.8-.012-4.2.008-.029-1.413,0-2.827-.012-4.24Q25.305,15.638,25.305,11.975Z"/>
      <path id="Path_9" data-name="Path 9" class="cls-3" d="M51.938,12.549c.006-1.537-.011-3.074.008-4.61,1.53.015,3.06,0,4.59.007q-.008,7.793,0,15.585c-1.53,0-3.06-.008-4.59.006C51.927,19.875,51.943,16.212,51.938,12.549Z"/>
      <path id="Path_10" data-name="Path 10" class="cls-3" d="M64.192,7.944c5.285,0,10.571.008,15.856,0,.013,1.21,0,2.421,0,3.632q-2.836,0-5.672,0c-.01,3.988.006,7.978-.008,11.965-1.505-.011-3.01,0-4.515-.005,0-3.988.01-7.976-.006-11.963q-2.814.01-5.63,0l-.028-.025C64.184,10.344,64.189,9.144,64.192,7.944Z"/>
      <path id="Path_11" data-name="Path 11" class="cls-3" d="M87.586,7.943q7.278.009,14.555,0c-.005,1.17.011,2.341-.008,3.511-3.348-.013-6.7,0-10.043-.006-.007.868.01,1.737-.008,2.605,2.841.024,5.683,0,8.525.011,0,1.092,0,2.184,0,3.276-2.839,0-5.677,0-8.516,0-.011.9,0,1.795-.008,2.691,3.374.015,6.749,0,10.124.006,0,1.165,0,2.33,0,3.495q-7.314,0-14.628,0Q87.6,15.736,87.586,7.943Z"/>
      <g id="Group_1" data-name="Group 1">
        <path id="Path_12" data-name="Path 12" class="cls-3" d="M110.511,7.944c1.917,0,3.834,0,5.752,0a33.6,33.6,0,0,1,4.523.152,10.187,10.187,0,0,1,4.08,1.373A6.356,6.356,0,0,1,127.181,12a8.154,8.154,0,0,1,.791,3.8,8.073,8.073,0,0,1-.781,3.621,6.26,6.26,0,0,1-1.807,2.2,9.446,9.446,0,0,1-4.35,1.719,30.119,30.119,0,0,1-4.71.193h-5.816Q110.526,15.738,110.511,7.944Zm4.526,3.6c-.007,2.8,0,5.593,0,8.389.537.027,1.075.006,1.612.012.872-.007,1.745.024,2.616-.047a4.746,4.746,0,0,0,3.027-1.194,4.018,4.018,0,0,0,1-2.77,5.352,5.352,0,0,0-.366-2.193,3.123,3.123,0,0,0-1.281-1.461,6.276,6.276,0,0,0-3.017-.735C117.428,11.539,116.232,11.541,115.036,11.542Z"/>
      </g>
      <path id="Path_13" data-name="Path 13" class="cls-3" d="M156.04,8.371c.343.156.792.178,1.008.529a10.339,10.339,0,0,1,2.261,4.475,11.581,11.581,0,0,1-.1,5.386,20.246,20.246,0,0,1-4.314,7.962,30.628,30.628,0,0,1-2.777,2.836c-.226-.006-.452.013-.674-.013-.532-.682-1.038-1.386-1.6-2.042a23.664,23.664,0,0,0,2.791-2.842q.851.952,1.659,1.942a5.805,5.805,0,0,0,.6-.647,7.225,7.225,0,0,0,.6-.8c-.01-.159-.165-.254-.252-.372-.464-.543-.94-1.075-1.437-1.587.486-.619.9-1.288,1.325-1.952.183-.3.364-.608.517-.928a3.421,3.421,0,0,1,.647.546q.582.572,1.147,1.163a10.847,10.847,0,0,0,.823-1.83,16.065,16.065,0,0,0-1.68-1.592c-.088-.043-.064-.127-.034-.2A11,11,0,0,0,157.265,16a1.392,1.392,0,0,1,.44.273,16,16,0,0,1,1.265,1.065,11.431,11.431,0,0,0,.123-2.5,18.936,18.936,0,0,0-1.537-1.156c-.045-.541-.039-1.085-.127-1.622.456.249.887.545,1.344.792a10.233,10.233,0,0,0-1.031-2.47,1.541,1.541,0,0,0-.23-.349c-.233-.143-.5-.228-.738-.353-.078-.03-.1-.118-.134-.182C156.468,9.106,156.238,8.747,156.04,8.371Z"/>
      <path id="Path_14" data-name="Path 14" class="cls-3" d="M158.249,10.131c.248.029.385.282.554.441a9.83,9.83,0,0,1,2.365,4.843,13.317,13.317,0,0,1-.268,5.865,20.443,20.443,0,0,1-4.575,8.343h-3.775c.178-.21.4-.38.591-.575.441-.433.851-.9,1.255-1.365.133-.138.231-.325.4-.419.472.579.915,1.184,1.362,1.783.448-.48.829-1.016,1.231-1.534a21.248,21.248,0,0,0-1.366-1.779,26.205,26.205,0,0,0,1.988-3.128c.462.512.867,1.074,1.277,1.628a9.05,9.05,0,0,0,.83-1.94,17.277,17.277,0,0,0-1.229-1.6,14.514,14.514,0,0,0,.729-2.743A12.8,12.8,0,0,1,160.8,19.19a12.671,12.671,0,0,0,.08-2.856,8.349,8.349,0,0,0-1.029-.939c-.04-.643-.131-1.28-.217-1.919.246.182.485.373.736.548a11.04,11.04,0,0,0-1.929-3.528C158.365,10.384,158.241,10.282,158.249,10.131Z"/>
      <path id="Path_15" data-name="Path 15" class="cls-3" d="M161.311,14.773c.234.117.307.383.407.605a10.444,10.444,0,0,1,.817,2.779,12.6,12.6,0,0,1-.132,3.118,18.285,18.285,0,0,1-1.465,4.876,24.535,24.535,0,0,1-1.9,3.4c-.114,0-.227.006-.338.008-.269-.474-.587-.92-.845-1.4a26.979,26.979,0,0,0,1.94-3.172l.062.008c.23.324.421.675.622,1.018a3.6,3.6,0,0,0,.295-.608,10.762,10.762,0,0,0,.515-1.447c-.2-.339-.4-.684-.592-1.028a19.253,19.253,0,0,0,.746-2.864c0-.118.1-.01.128.032.142.183.282.368.438.541a11.929,11.929,0,0,0,.2-2.86,6.64,6.64,0,0,0-.529-.713c-.08-.086-.066-.212-.082-.319A15.614,15.614,0,0,0,161.311,14.773Z"/>
      <path id="Path_16" data-name="Path 16" class="cls-3" d="M162.929,20.69c.032-.1-.017-.426.161-.337a13.3,13.3,0,0,1-.523,4.792,21.277,21.277,0,0,1-1.765,4.476h-1.453a3.054,3.054,0,0,1,.34-.591c.471-.737.867-1.517,1.283-2.285a6.1,6.1,0,0,1,.353.67,14.562,14.562,0,0,0,.694-1.863c.15-.362-.3-.68-.15-1.038a16.089,16.089,0,0,0,.757-2.911.55.55,0,0,1,.18.127C162.855,21.385,162.888,21.038,162.929,20.69Z"/>
      <path id="Path_17" data-name="Path 17" class="cls-3" d="M163.066,24.125l.1-.024a19.006,19.006,0,0,1-1.184,5.456c-.28,0-.559,0-.838,0,.166-.368.35-.728.519-1.1,0-.059.1-.161.116-.05.037.032.031.192.1.157C162.358,27.111,162.74,25.622,163.066,24.125Z"/>
      <g id="Group_2" data-name="Group 2">
        <path id="Path_18" data-name="Path 18" class="cls-3" d="M169.853,27.35a1.314,1.314,0,0,1,1.756.064,1.4,1.4,0,0,1,.392.893v.023a1.306,1.306,0,0,1-2.291.83A1.305,1.305,0,0,1,169.853,27.35Zm.524.061a.966.966,0,0,0-.512,1.414.984.984,0,0,0,1.465.241c-.112-.012-.22-.022-.327-.031-.12-.2-.251-.4-.375-.6l-.139-.006q0,.309,0,.618c-.107,0-.21,0-.313,0,0-.483.006-.966,0-1.449a5.027,5.027,0,0,1,.924.027.414.414,0,0,1,.235.534c-.034.166-.219.219-.342.3.164.15.213.436.419.522a.949.949,0,0,0,.234-.878A.984.984,0,0,0,170.377,27.41Zm.118.478-.008.235c.143,0,.29,0,.436-.014.11.021.1-.114.113-.182A3.894,3.894,0,0,0,170.495,27.889Z"/>
      </g>
      <path id="Path_19" data-name="Path 19" class="cls-3" d="M138.9,29.325a22.5,22.5,0,0,0,2.669-1.024c.245.44.5.873.731,1.322h-3.4C138.9,29.522,138.9,29.423,138.9,29.325Z"/>
      <path id="Path_20" data-name="Path 20" class="cls-3" d="M147.473,29.365c.4-.255.753-.584,1.147-.853.229.373.51.717.7,1.11h-2.192A3.077,3.077,0,0,1,147.473,29.365Z"/>
    </g>
  </g>
</svg>
